<?xml version="1.0" encoding="utf-8"?>
<!-- Generator: Adobe Illustrator 21.0.0, SVG Export Plug-In . SVG Version: 6.00 Build 0)  -->
<svg version="1.1" xmlns="http://www.w3.org/2000/svg" xmlns:xlink="http://www.w3.org/1999/xlink" x="0px" y="0px"
	 viewBox="0 0 600 600" style="enable-background:new 0 0 600 600;" xml:space="preserve">
<g id="Capa_1">
	<g>
		<path d="M559.8,153.2C532.9,106,496.5,68.7,450.6,41.2C404.6,13.7,354.4,0,300,0c-54.4,0-104.6,13.7-150.6,41.2
			c-46,27.5-82.4,64.8-109.2,111.9C13.4,200.3,0,251.7,0,307.5c0,67,19.1,127.3,57.2,180.8c38.1,53.5,87.4,90.6,147.8,111.1
			c7,1.3,12.2,0.4,15.6-2.8c3.4-3.2,5.1-7.2,5.1-12c0-0.8-0.1-8-0.2-21.6c-0.1-13.6-0.2-25.5-0.2-35.6l-9,1.6
			c-5.7,1.1-13,1.5-21.7,1.4c-8.7-0.1-17.8-1.1-27.1-2.8c-9.4-1.7-18.1-5.7-26.2-12c-8.1-6.3-13.8-14.5-17.2-24.6l-3.9-9.2
			c-2.6-6.1-6.7-12.9-12.3-20.4c-5.6-7.5-11.3-12.5-17-15.2l-2.7-2c-1.8-1.3-3.5-2.9-5.1-4.8c-1.6-1.9-2.7-3.7-3.5-5.6
			c-0.8-1.9-0.1-3.4,2-4.6c2.1-1.2,5.9-1.8,11.3-1.8l7.8,1.2c5.2,1.1,11.7,4.3,19.3,9.6c7.7,5.3,14,12.3,18.9,20.8
			c6,10.9,13.2,19.3,21.7,25c8.5,5.7,17,8.6,25.6,8.6s16-0.7,22.3-2c6.2-1.3,12.1-3.3,17.6-6c2.3-17.9,8.7-31.6,19.1-41.2
			c-14.8-1.6-28.2-4-40-7.2c-11.8-3.2-24.1-8.4-36.7-15.6c-12.6-7.2-23.1-16.2-31.4-26.8c-8.3-10.7-15.2-24.7-20.5-42
			c-5.3-17.4-8-37.4-8-60.1c0-32.3,10.3-59.8,30.9-82.5c-9.6-24.3-8.7-51.5,2.7-81.7c7.6-2.4,18.8-0.6,33.6,5.4
			c14.8,6,25.7,11.2,32.6,15.4c6.9,4.3,12.4,7.9,16.6,10.8c24.2-6.9,49.2-10.4,75-10.4s50.8,3.5,75,10.4l14.8-9.6
			c10.2-6.4,22.1-12.3,35.9-17.6c13.8-5.3,24.4-6.8,31.7-4.4c11.7,30.2,12.8,57.4,3.1,81.7c20.6,22.7,30.9,50.2,30.9,82.5
			c0,22.7-2.7,42.8-8,60.3c-5.3,17.5-12.2,31.5-20.7,42c-8.5,10.5-19,19.4-31.6,26.6c-12.6,7.2-24.9,12.4-36.7,15.6
			c-11.9,3.2-25.2,5.6-40,7.2c13.5,12,20.3,31,20.3,56.9v84.5c0,4.8,1.6,8.8,4.9,12c3.3,3.2,8.4,4.1,15.4,2.8
			c60.4-20.6,109.7-57.6,147.9-111.1c38.1-53.5,57.2-113.8,57.2-180.8C600,251.7,586.6,200.3,559.8,153.2z"/>
	</g>
</g>
<g id="Layer_2">
</g>
</svg>
